<svg data-v-423bf9ae="" xmlns="http://www.w3.org/2000/svg" viewBox="0 0 402.1519032529264 163" class="iconAbove"><!----><!----><!----><g data-v-423bf9ae="" id="5268e6d2-293a-4fb9-8225-4d142f5df51e" fill="white" transform="matrix(5.424955053999871,0,0,5.424955053999871,-6.075957246763579,91.1735983353812)"><path d="M3.30 5.14L3.30 11.27L3.30 11.27Q3.46 11.28 3.66 11.29L3.66 11.29L3.66 11.29Q3.86 11.30 4.14 11.30L4.14 11.30L4.14 11.30Q5.78 11.30 6.57 10.47L6.57 10.47L6.57 10.47Q7.36 9.65 7.36 8.19L7.36 8.19L7.36 8.19Q7.36 6.66 6.61 5.88L6.61 5.88L6.61 5.88Q5.85 5.10 4.21 5.10L4.21 5.10L4.21 5.10Q3.99 5.10 3.75 5.10L3.75 5.10L3.75 5.10Q3.51 5.11 3.30 5.14L3.30 5.14ZM9.62 8.19L9.62 8.19L9.62 8.19Q9.62 9.45 9.23 10.39L9.23 10.39L9.23 10.39Q8.83 11.33 8.11 11.94L8.11 11.94L8.11 11.94Q7.39 12.56 6.36 12.87L6.36 12.87L6.36 12.87Q5.32 13.17 4.03 13.17L4.03 13.17L4.03 13.17Q3.44 13.17 2.66 13.13L2.66 13.13L2.66 13.13Q1.88 13.08 1.12 12.92L1.12 12.92L1.12 3.47L1.12 3.47Q1.88 3.33 2.69 3.28L2.69 3.28L2.69 3.28Q3.51 3.23 4.10 3.23L4.10 3.23L4.10 3.23Q5.35 3.23 6.36 3.51L6.36 3.51L6.36 3.51Q7.38 3.79 8.11 4.40L8.11 4.40L8.11 4.40Q8.83 5.00 9.23 5.94L9.23 5.94L9.23 5.94Q9.62 6.87 9.62 8.19ZM18.19 9.35L18.19 9.35L18.19 9.35Q18.19 10.22 17.93 10.94L17.93 10.94L17.93 10.94Q17.68 11.66 17.21 12.17L17.21 12.17L17.21 12.17Q16.73 12.68 16.06 12.96L16.06 12.96L16.06 12.96Q15.40 13.24 14.57 13.24L14.57 13.24L14.57 13.24Q13.76 13.24 13.10 12.96L13.10 12.96L13.10 12.96Q12.43 12.68 11.96 12.17L11.96 12.17L11.96 12.17Q11.48 11.66 11.21 10.94L11.21 10.94L11.21 10.94Q10.95 10.22 10.95 9.35L10.95 9.35L10.95 9.35Q10.95 8.48 11.22 7.77L11.22 7.77L11.22 7.77Q11.49 7.06 11.98 6.55L11.98 6.55L11.98 6.55Q12.46 6.05 13.13 5.77L13.13 5.77L13.13 5.77Q13.79 5.49 14.57 5.49L14.57 5.49L14.57 5.49Q15.37 5.49 16.04 5.77L16.04 5.77L16.04 5.77Q16.70 6.05 17.18 6.55L17.18 6.55L17.18 6.55Q17.65 7.06 17.92 7.77L17.92 7.77L17.92 7.77Q18.19 8.48 18.19 9.35ZM16.06 9.35L16.06 9.35L16.06 9.35Q16.06 8.39 15.67 7.83L15.67 7.83L15.67 7.83Q15.29 7.28 14.57 7.28L14.57 7.28L14.57 7.28Q13.86 7.28 13.47 7.83L13.47 7.83L13.47 7.83Q13.08 8.39 13.08 9.35L13.08 9.35L13.08 9.35Q13.08 10.32 13.47 10.88L13.47 10.88L13.47 10.88Q13.86 11.45 14.57 11.45L14.57 11.45L14.57 11.45Q15.29 11.45 15.67 10.88L15.67 10.88L15.67 10.88Q16.06 10.32 16.06 9.35ZM21.88 2.18L21.88 8.34L21.88 8.34Q22.19 8.01 22.52 7.64L22.52 7.64L22.52 7.64Q22.85 7.28 23.16 6.92L23.16 6.92L23.16 6.92Q23.46 6.57 23.74 6.24L23.74 6.24L23.74 6.24Q24.01 5.92 24.21 5.68L24.21 5.68L26.68 5.68L26.68 5.68Q25.94 6.54 25.23 7.31L25.23 7.31L25.23 7.31Q24.53 8.09 23.69 8.92L23.69 8.92L23.69 8.92Q24.11 9.30 24.56 9.82L24.56 9.82L24.56 9.82Q25.00 10.35 25.42 10.91L25.42 10.91L25.42 10.91Q25.84 11.47 26.19 12.03L26.19 12.03L26.19 12.03Q26.54 12.59 26.78 13.05L26.78 13.05L24.39 13.05L24.39 13.05Q24.16 12.68 23.88 12.24L23.88 12.24L23.88 12.24Q23.59 11.80 23.27 11.36L23.27 11.36L23.27 11.36Q22.95 10.92 22.59 10.51L22.59 10.51L22.59 10.51Q22.23 10.11 21.88 9.83L21.88 9.83L21.88 13.05L19.80 13.05L19.80 2.52L21.88 2.18ZM30.72 11.59L30.72 11.59L30.72 11.59Q31.02 11.59 31.30 11.58L31.30 11.58L31.30 11.58Q31.58 11.56 31.75 11.54L31.75 11.54L31.75 9.95L31.75 9.95Q31.63 9.93 31.37 9.90L31.37 9.90L31.37 9.90Q31.12 9.87 30.91 9.87L30.91 9.87L30.91 9.87Q30.62 9.87 30.36 9.90L30.36 9.90L30.36 9.90Q30.10 9.94 29.90 10.04L29.90 10.04L29.90 10.04Q29.71 10.14 29.60 10.30L29.60 10.30L29.60 10.30Q29.48 10.47 29.48 10.72L29.48 10.72L29.48 10.72Q29.48 11.21 29.81 11.40L29.81 11.40L29.81 11.40Q30.14 11.59 30.72 11.59ZM30.55 5.49L30.55 5.49L30.55 5.49Q31.47 5.49 32.09 5.70L32.09 5.70L32.09 5.70Q32.70 5.91 33.07 6.30L33.07 6.30L33.07 6.30Q33.45 6.69 33.60 7.25L33.60 7.25L33.60 7.25Q33.75 7.81 33.75 8.50L33.75 8.50L33.75 12.84L33.75 12.84Q33.31 12.94 32.51 13.07L32.51 13.07L32.51 13.07Q31.71 13.20 30.58 13.20L30.58 13.20L30.58 13.20Q29.86 13.20 29.28 13.08L29.28 13.08L29.28 13.08Q28.70 12.95 28.28 12.66L28.28 12.66L28.28 12.66Q27.86 12.38 27.64 11.91L27.64 11.91L27.64 11.91Q27.41 11.45 27.41 10.78L27.41 10.78L27.41 10.78Q27.41 10.14 27.67 9.69L27.67 9.69L27.67 9.69Q27.93 9.24 28.36 8.97L28.36 8.97L28.36 8.97Q28.80 8.71 29.36 8.59L29.36 8.59L29.36 8.59Q29.92 8.47 30.52 8.47L30.52 8.47L30.52 8.47Q30.93 8.47 31.24 8.50L31.24 8.50L31.24 8.50Q31.56 8.54 31.75 8.60L31.75 8.60L31.75 8.40L31.75 8.40Q31.75 7.87 31.43 7.55L31.43 7.55L31.43 7.55Q31.11 7.22 30.31 7.22L30.31 7.22L30.31 7.22Q29.78 7.22 29.26 7.30L29.26 7.30L29.26 7.30Q28.74 7.38 28.36 7.52L28.36 7.52L28.10 5.84L28.10 5.84Q28.28 5.78 28.55 5.72L28.55 5.72L28.55 5.72Q28.83 5.66 29.15 5.61L29.15 5.61L29.15 5.61Q29.47 5.56 29.83 5.52L29.83 5.52L29.83 5.52Q30.18 5.49 30.55 5.49ZM35.64 13.05L35.64 5.94L35.64 5.94Q36.18 5.78 37.02 5.65L37.02 5.65L37.02 5.65Q37.86 5.52 38.78 5.52L38.78 5.52L38.78 5.52Q39.72 5.52 40.34 5.76L40.34 5.76L40.34 5.76Q40.96 6.01 41.33 6.45L41.33 6.45L41.33 6.45Q41.69 6.90 41.85 7.52L41.85 7.52L41.85 7.52Q42.00 8.13 42.00 8.89L42.00 8.89L42.00 13.05L39.91 13.05L39.91 9.14L39.91 9.14Q39.91 8.13 39.65 7.71L39.65 7.71L39.65 7.71Q39.38 7.29 38.65 7.29L38.65 7.29L38.65 7.29Q38.43 7.29 38.18 7.31L38.18 7.31L38.18 7.31Q37.93 7.34 37.73 7.36L37.73 7.36L37.73 13.05L35.64 13.05ZM48.76 5.03L48.76 5.03L48.76 5.03Q47.24 5.03 46.56 5.87L46.56 5.87L46.56 5.87Q45.88 6.72 45.88 8.19L45.88 8.19L45.88 8.19Q45.88 8.90 46.05 9.48L46.05 9.48L46.05 9.48Q46.21 10.07 46.55 10.49L46.55 10.49L46.55 10.49Q46.89 10.91 47.39 11.14L47.39 11.14L47.39 11.14Q47.89 11.37 48.57 11.37L48.57 11.37L48.57 11.37Q48.93 11.37 49.19 11.35L49.19 11.35L49.19 11.35Q49.45 11.34 49.64 11.30L49.64 11.30L49.64 7.92L51.83 7.92L51.83 12.73L51.83 12.73Q51.44 12.88 50.57 13.05L50.57 13.05L50.57 13.05Q49.70 13.23 48.43 13.23L48.43 13.23L48.43 13.23Q47.33 13.23 46.44 12.89L46.44 12.89L46.44 12.89Q45.56 12.56 44.93 11.91L44.93 11.91L44.93 11.91Q44.30 11.27 43.95 10.33L43.95 10.33L43.95 10.33Q43.61 9.39 43.61 8.19L43.61 8.19L43.61 8.19Q43.61 6.97 43.99 6.03L43.99 6.03L43.99 6.03Q44.37 5.10 45.02 4.45L45.02 4.45L45.02 4.45Q45.68 3.79 46.57 3.46L46.57 3.46L46.57 3.46Q47.46 3.12 48.47 3.12L48.47 3.12L48.47 3.12Q49.15 3.12 49.71 3.21L49.71 3.21L49.71 3.21Q50.26 3.30 50.66 3.42L50.66 3.42L50.66 3.42Q51.06 3.54 51.32 3.67L51.32 3.67L51.32 3.67Q51.58 3.79 51.69 3.86L51.69 3.86L51.06 5.61L51.06 5.61Q50.61 5.38 50.03 5.20L50.03 5.20L50.03 5.20Q49.45 5.03 48.76 5.03ZM55.80 13.05L53.72 13.05L53.72 2.52L55.80 2.18L55.80 5.71L55.80 5.71Q56.01 5.64 56.34 5.58L56.34 5.58L56.34 5.58Q56.67 5.52 56.98 5.52L56.98 5.52L56.98 5.52Q57.88 5.52 58.47 5.76L58.47 5.76L58.47 5.76Q59.07 6.01 59.42 6.45L59.42 6.45L59.42 6.45Q59.78 6.90 59.93 7.52L59.93 7.52L59.93 7.52Q60.07 8.13 60.07 8.89L60.07 8.89L60.07 13.05L57.99 13.05L57.99 9.14L57.99 9.14Q57.99 8.13 57.73 7.71L57.73 7.71L57.73 7.71Q57.47 7.29 56.77 7.29L56.77 7.29L56.77 7.29Q56.49 7.29 56.24 7.34L56.24 7.34L56.24 7.34Q56 7.39 55.80 7.45L55.80 7.45L55.80 13.05ZM68.85 9.35L68.85 9.35L68.85 9.35Q68.85 10.22 68.60 10.94L68.60 10.94L68.60 10.94Q68.35 11.66 67.87 12.17L67.87 12.17L67.87 12.17Q67.40 12.68 66.73 12.96L66.73 12.96L66.73 12.96Q66.07 13.24 65.24 13.24L65.24 13.24L65.24 13.24Q64.43 13.24 63.76 12.96L63.76 12.96L63.76 12.96Q63.10 12.68 62.62 12.17L62.62 12.17L62.62 12.17Q62.15 11.66 61.88 10.94L61.88 10.94L61.88 10.94Q61.61 10.22 61.61 9.35L61.61 9.35L61.61 9.35Q61.61 8.48 61.89 7.77L61.89 7.77L61.89 7.77Q62.16 7.06 62.64 6.55L62.64 6.55L62.64 6.55Q63.13 6.05 63.79 5.77L63.79 5.77L63.79 5.77Q64.46 5.49 65.24 5.49L65.24 5.49L65.24 5.49Q66.04 5.49 66.70 5.77L66.70 5.77L66.70 5.77Q67.37 6.05 67.84 6.55L67.84 6.55L67.84 6.55Q68.32 7.06 68.59 7.77L68.59 7.77L68.59 7.77Q68.85 8.48 68.85 9.35ZM66.72 9.35L66.72 9.35L66.72 9.35Q66.72 8.39 66.34 7.83L66.34 7.83L66.34 7.83Q65.95 7.28 65.24 7.28L65.24 7.28L65.24 7.28Q64.53 7.28 64.13 7.83L64.13 7.83L64.13 7.83Q63.74 8.39 63.74 9.35L63.74 9.35L63.74 9.35Q63.74 10.32 64.13 10.88L64.13 10.88L64.13 10.88Q64.53 11.45 65.24 11.45L65.24 11.45L65.24 11.45Q65.95 11.45 66.34 10.88L66.34 10.88L66.34 10.88Q66.72 10.32 66.72 9.35ZM75.25 5.81L74.90 7.53L74.90 7.53Q74.62 7.46 74.24 7.38L74.24 7.38L74.24 7.38Q73.86 7.31 73.43 7.31L73.43 7.31L73.43 7.31Q73.23 7.31 72.96 7.34L72.96 7.34L72.96 7.34Q72.69 7.38 72.55 7.42L72.55 7.42L72.55 13.05L70.46 13.05L70.46 6.08L70.46 6.08Q71.02 5.88 71.78 5.71L71.78 5.71L71.78 5.71Q72.55 5.53 73.49 5.53L73.49 5.53L73.49 5.53Q73.65 5.53 73.89 5.55L73.89 5.55L73.89 5.55Q74.13 5.57 74.37 5.61L74.37 5.61L74.37 5.61Q74.61 5.64 74.84 5.69L74.84 5.69L74.84 5.69Q75.08 5.74 75.25 5.81L75.25 5.81Z"></path></g><!----><g data-v-423bf9ae="" id="a19891cb-76ff-4889-a2c3-6cd2cb7ae978" transform="matrix(2.8125,0,0,2.8125,157,0)" stroke="none" fill="white"><path d="M6.651 19.325h6.024V32h6.65V19.325h6.024V32H32V0h-6.651v12.675h-6.024V0h-6.65v12.675H6.651V0H0v32h6.651z"></path></g><!----></svg>